<svg class="arrowRight" viewBox="0 0 27 27" fill="none" xmlns="http://www.w3.org/2000/svg">
<path d="M16.8712 6.36577C16.4807 5.97524 15.8475 5.97524 15.457 6.36577C15.0665 6.75629 15.0665 7.38946 15.457 7.77998L16.8712 6.36577ZM22.5912 13.5L23.2984 14.2071C23.4859 14.0196 23.5912 13.7652 23.5912 13.5C23.5912 13.2348 23.4859 12.9804 23.2984 12.7929L22.5912 13.5ZM15.457 19.22C15.0665 19.6105 15.0665 20.2437 15.457 20.6342C15.8475 21.0248 16.4807 21.0248 16.8712 20.6342L15.457 19.22ZM4.43652 12.5C3.88424 12.5 3.43652 12.9477 3.43652 13.5C3.43652 14.0523 3.88424 14.5 4.43652 14.5V12.5ZM22.5721 14.5C23.1244 14.5 23.5721 14.0523 23.5721 13.5C23.5721 12.9477 23.1244 12.5 22.5721 12.5V14.5ZM15.457 7.77998L21.8841 14.2071L23.2984 12.7929L16.8712 6.36577L15.457 7.77998ZM21.8841 12.7929L15.457 19.22L16.8712 20.6342L23.2984 14.2071L21.8841 12.7929ZM4.43652 14.5H22.5721V12.5H4.43652V14.5Z" fill="currentColor"/>
</svg>
