<svg class="activeIcon" viewBox="0 0 16 16" fill="none" xmlns="http://www.w3.org/2000/svg">
<path d="M8.19269 5.64836L5.64197 8.19907M10.0781 7.53377L7.52739 10.0845M13.0706 9.29975C11.2482 11.1222 8.29343 11.1222 6.47098 9.29975C4.64853 7.4773 4.64853 4.52253 6.47098 2.70009C8.29343 0.87764 11.2482 0.87764 13.0706 2.70009C14.8931 4.52253 14.8931 7.4773 13.0706 9.29975ZM9.29981 13.0706C7.47736 14.893 4.52259 14.893 2.70015 13.0706C0.877701 11.2481 0.877701 8.29337 2.70015 6.47092C4.52259 4.64847 7.47736 4.64847 9.29981 6.47092C11.1223 8.29337 11.1223 11.2481 9.29981 13.0706Z" stroke="currentColor" stroke-width="1.2" stroke-miterlimit="10" stroke-linecap="round" stroke-linejoin="round"/>
</svg>
