<svg width="32" height="32" viewBox="0 0 32 32" fill="none" xmlns="http://www.w3.org/2000/svg">
<path d="M3.55762 18.2866C5.51762 17.7786 7.57228 17.5093 9.69095 17.5093C16.9776 17.5093 23.5176 20.704 27.987 25.768M24.443 28.4426H7.55762C5.34828 28.4426 3.55762 26.652 3.55762 24.4426V7.55731C3.55762 5.34798 5.34828 3.55731 7.55762 3.55731H24.443C26.6523 3.55731 28.443 5.34798 28.443 7.55731V24.4426C28.443 26.652 26.6523 28.4426 24.443 28.4426ZM24.1563 11.612C24.1563 13.5759 22.5642 15.168 20.6003 15.168C18.6364 15.168 17.0443 13.5759 17.0443 11.612C17.0443 9.64805 18.6364 8.05598 20.6003 8.05598C22.5642 8.05598 24.1563 9.64805 24.1563 11.612Z" stroke="#33348E" stroke-width="2.4" stroke-miterlimit="10" stroke-linecap="round" stroke-linejoin="round"/>
</svg>
