<svg class="ndcLogo" viewBox="0 0 78 24" fill="none" xmlns="http://www.w3.org/2000/svg">
<path d="M13.1637 7.8797V0H10.9446V7.8797L6.98944 1.05263L5.07226 2.16541L9.02741 8.99248L2.17383 5.05263L1.0718 6.9624L7.9103 10.9023H0V13.1128H7.9103L1.0718 17.0526L2.17383 18.9624L9.02741 15.0226L5.07226 21.8496L6.98944 22.9474L10.9446 16.1203V24H13.1637V16.1203" fill="white"/>
<path d="M10.9446 7.8797V0H13.1637V7.8797L17.1189 1.06767L19.0361 2.16541L15.0809 8.99248L21.9345 5.05263L23.0365 6.9624L16.1829 10.9023H24.0932V13.1128H16.1829L23.0365 17.0526L21.9345 18.9624L15.0809 15.0226L19.0361 21.8496L17.1189 22.9474L13.1637 16.1203V24H10.9446V16.1203" fill="white"/>
<path d="M32.0867 6.33017V7.67439H35.64H38.7002C39.006 7.67439 39.294 7.81823 39.4777 8.06271C39.737 8.40393 39.845 8.83105 39.8581 9.25942C39.8841 10.1096 39.9263 11.6943 39.9415 13.4246L39.9789 18.0921L41.3478 18.1145L42.7093 18.1294V15.0526C42.7019 11.4083 42.6046 8.65267 42.455 7.96563C42.3129 7.30846 42.1034 6.91266 41.6321 6.41978C40.6688 5.37669 39.1301 5.13706 37.7119 5.06969C36.9088 5.03155 35.9252 4.99908 34.8396 4.99342L32.0867 4.98595V6.33017Z" fill="white"/>
<path d="M46.9076 9.437C46.9076 11.9014 46.9076 14.7588 46.9076 14.7588V18.1381C46.9076 18.1381 47.8128 18.1232 48.501 18.1381L49.6755 18.1445L53.2139 18.1072C57.0665 18.0699 57.4255 18.0325 58.1212 17.6367C58.615 17.3455 59.3406 16.6211 59.58 16.188C59.9391 15.5382 59.9989 14.9632 60.0513 12.1553C60.1036 8.83957 60.0363 8.01064 59.6548 7.23398C59.1162 6.14367 57.9941 5.28487 56.9168 5.12804C56.655 5.0907 54.2986 5.03843 51.6803 5.01603L46.9076 4.96375V9.437ZM55.7124 7.7418C55.7124 7.7418 56.5164 7.7418 56.9294 8.06917C57.4108 8.45076 57.418 9.14097 57.418 9.75528V11.5579C57.418 14.5002 57.4031 14.657 57.0216 15.008C56.6101 15.3889 56.5353 15.3964 52.952 15.4262L49.6007 15.4486V11.6102C49.6007 9.50421 49.6007 7.7418 49.6007 7.7418C49.668 7.66712 55.7124 7.7418 55.7124 7.7418Z" fill="white"/>
<path d="M68.2209 5.06063C67.0838 5.12037 66.3956 5.2548 65.8345 5.53111C65.3633 5.76261 64.7124 6.41978 64.3459 7.03962C63.7923 7.9731 63.9225 8.07018 63.915 12.0431L63.9151 18.1294H65.1206H66.3507H71.6246H76.8986V16.7852V15.441H71.7069H66.5228L66.4854 12.6181C66.4704 11.0723 66.4779 9.56375 66.5003 9.27251C66.6051 8.1822 66.9567 7.87602 68.2583 7.74906C68.6697 7.71172 70.7793 7.67439 72.9562 7.67439H76.8986V6.33017V4.98595L73.1058 5.00089C71.0112 5.00089 68.8194 5.03076 68.2209 5.06063Z" fill="white"/>
<path d="M29.7622 4.98699H29.5432V12.9467V18.1294H29.9397C30.1641 18.1294 30.7551 18.107 31.2488 18.0771L32.1615 18.0323V12.9392V4.98699H31.8721H29.7622Z" fill="white"/>
</svg>
