<svg class="footerIcon" viewBox="0 0 32 32" fill="none" xmlns="http://www.w3.org/2000/svg">
<path d="M19.1827 3.63351C24.256 3.63351 28.368 7.74551 28.368 12.8188M19.1827 8.3535C21.648 8.3535 23.648 10.3522 23.648 12.8188M12.808 19.1535C14.008 20.3042 15.4147 21.2402 16.9693 21.9042L17.6613 22.1988L19.788 20.0388C20.316 19.5028 21.08 19.2708 21.8173 19.4255L26.9693 20.5042C27.8413 20.6895 28.464 21.4588 28.464 22.3495V26.0588C28.464 27.3855 27.3893 28.4602 26.0627 28.4602H24.9227C19.6773 28.4602 14.5013 26.7228 10.5867 23.2322C10.264 22.9455 9.95067 22.6482 9.64533 22.3442L9.69466 22.3935C9.38933 22.0882 9.09333 21.7748 8.80666 21.4522C5.31466 17.5388 3.57733 12.3628 3.57733 7.1175V5.9775C3.57733 4.65084 4.652 3.57617 5.97867 3.57617H9.688C10.5787 3.57617 11.348 4.19884 11.5333 5.07084L12.6133 10.2228C12.7667 10.9588 12.536 11.7242 12 12.2522L9.84 14.3788L10.1347 15.0708C10.7987 16.6242 11.656 17.9535 12.808 19.1535Z" stroke="currentColor" stroke-width="2" stroke-miterlimit="10" stroke-linecap="round" stroke-linejoin="round"/>
</svg>
