<svg class="advantage__icon" viewBox="0 0 40 40" fill="none" xmlns="http://www.w3.org/2000/svg">
<path d="M26.6435 18.962L25.7163 18.5873C25.7143 18.5922 25.7123 18.5972 25.7104 18.6023L26.6435 18.962ZM13.3101 18.962L14.2432 18.6023C14.2413 18.5972 14.2393 18.5922 14.2373 18.5873L13.3101 18.962ZM21.277 24.2816L21.5371 25.2472L21.277 24.2816ZM18.6766 24.2816L18.4165 25.2472H18.4165L18.6766 24.2816ZM5.63519 15.3343L4.6655 15.5786H4.6655L5.63519 15.3343ZM10.7636 19.1048L10.8196 20.1032L10.7636 19.1048ZM4.87779 12.3283L5.84748 12.084L4.87779 12.3283ZM34.3984 15.3005L35.3698 15.5377V15.5377L34.3984 15.3005ZM29.2653 19.1068L29.2102 20.1053L29.2653 19.1068ZM35.1328 12.2928L34.1614 12.0556V12.0556L35.1328 12.2928ZM14.0635 20.9161L13.1304 21.2758V21.2758L14.0635 20.9161ZM17.4286 23.9455L17.6886 22.9799H17.6886L17.4286 23.9455ZM25.8901 20.9161L26.8232 21.2758L25.8901 20.9161ZM22.525 23.9455L22.265 22.9799H22.265L22.525 23.9455ZM20.9768 28.7825C20.9768 28.2302 20.5291 27.7825 19.9768 27.7825C19.4245 27.7825 18.9768 28.2302 18.9768 28.7825H20.9768ZM14.9768 32.8997C14.4245 32.8997 13.9768 33.3474 13.9768 33.8997C13.9768 34.452 14.4245 34.8997 14.9768 34.8997V32.8997ZM24.9768 34.8997C25.5291 34.8997 25.9768 34.452 25.9768 33.8997C25.9768 33.3474 25.5291 32.8997 24.9768 32.8997V34.8997ZM11.6435 7.10669H28.3101V5.10669H11.6435V7.10669ZM27.3101 6.10669V10.3901H29.3101V6.10669H27.3101ZM12.6435 10.3901V6.10669H10.6435V10.3901H12.6435ZM28.3101 7.10669H30.2756V5.10669H28.3101V7.10669ZM34.1614 12.0556L33.4269 15.0633L35.3698 15.5377L36.1043 12.53L34.1614 12.0556ZM25.7104 18.6023L24.9571 20.5564L26.8232 21.2758L27.5765 19.3217L25.7104 18.6023ZM29.3205 18.1083L26.6986 17.9635L26.5883 19.9604L29.2102 20.1053L29.3205 18.1083ZM11.6435 5.10669H9.72625V7.10669H11.6435V5.10669ZM3.9081 12.5727L4.6655 15.5786L6.60488 15.0899L5.84748 12.084L3.9081 12.5727ZM14.9965 20.5564L14.2432 18.6023L12.3771 19.3217L13.1304 21.2758L14.9965 20.5564ZM10.8196 20.1032L13.3661 19.9604L13.2541 17.9635L10.7076 18.1063L10.8196 20.1032ZM22.265 22.9799L21.017 23.316L21.5371 25.2472L22.7851 24.9111L22.265 22.9799ZM18.9366 23.316L17.6886 22.9799L17.1685 24.9111L18.4165 25.2472L18.9366 23.316ZM21.017 23.316C20.3357 23.4995 19.6179 23.4995 18.9366 23.316L18.4165 25.2472C19.4385 25.5224 20.5151 25.5224 21.5371 25.2472L21.017 23.316ZM4.6655 15.5786C5.36794 18.3664 7.94918 20.2642 10.8196 20.1032L10.7076 18.1063C8.794 18.2137 7.07318 16.9485 6.60488 15.0899L4.6655 15.5786ZM9.72625 5.10669C5.81824 5.10669 2.95325 8.78311 3.9081 12.5727L5.84748 12.084C5.21091 9.55764 7.12091 7.10669 9.72625 7.10669V5.10669ZM33.4269 15.0633C32.9699 16.9347 31.2439 18.2145 29.3205 18.1083L29.2102 20.1053C32.0954 20.2646 34.6843 18.3448 35.3698 15.5377L33.4269 15.0633ZM30.2756 7.10669C32.8688 7.10669 34.7766 9.53636 34.1614 12.0556L36.1043 12.53C37.0271 8.75119 34.1654 5.10669 30.2756 5.10669V7.10669ZM10.6435 10.3901C10.6435 13.4563 11.2341 16.4939 12.383 19.3367L14.2373 18.5873C13.1846 15.9826 12.6435 13.1995 12.6435 10.3901H10.6435ZM27.3101 10.3901C27.3101 13.1995 26.769 15.9826 25.7163 18.5873L27.5706 19.3367C28.7195 16.4939 29.3101 13.4563 29.3101 10.3901H27.3101ZM13.1304 21.2758C13.8192 23.0625 15.3195 24.4131 17.1685 24.9111L17.6886 22.9799C16.4559 22.6479 15.4557 21.7475 14.9965 20.5564L13.1304 21.2758ZM24.9571 20.5564C24.4979 21.7475 23.4977 22.6479 22.265 22.9799L22.7851 24.9111C24.6341 24.4131 26.1344 23.0625 26.8232 21.2758L24.9571 20.5564ZM18.9768 28.7825V33.8997H20.9768V28.7825H18.9768ZM19.9768 32.8997H14.9768V34.8997H19.9768V32.8997ZM19.9768 34.8997H24.9768V32.8997H19.9768V34.8997Z" fill="currentColor"/>
</svg>
